<svg xmlns="http://www.w3.org/2000/svg" viewBox="0 0 360 280"><defs><linearGradient id="bg" x1="0" y1="0" x2="1" y2="1"><stop stop-color="#e8f8ff"/><stop offset=".58" stop-color="#d6ecff"/><stop offset="1" stop-color="#fff6cf"/></linearGradient><filter id="sh" x="-30%" y="-30%" width="160%" height="160%"><feDropShadow dx="0" dy="9" stdDeviation="8" flood-color="#39466f" flood-opacity=".15"/></filter></defs><rect width="360" height="280" rx="34" fill="url(#bg)"/><circle cx="302" cy="48" r="24" fill="#fff" opacity=".45"/><circle cx="55" cy="225" r="34" fill="#fff" opacity=".32"/><g filter="url(#sh)"><g stroke="#26345f" stroke-width="7" stroke-linejoin="round"><ellipse cx="145" cy="73" rx="25" ry="65" fill="#f7e7f5"/><ellipse cx="215" cy="73" rx="25" ry="65" fill="#f7e7f5"/><ellipse cx="145" cy="72" rx="10" ry="43" fill="#f5a9c7" stroke="none"/><ellipse cx="215" cy="72" rx="10" ry="43" fill="#f5a9c7" stroke="none"/><circle cx="180" cy="158" r="78" fill="#fff8ff"/><circle cx="153" cy="143" r="7" fill="#26345f"/><circle cx="207" cy="143" r="7" fill="#26345f"/><path d="M172 163 L188 163 L180 174 Z" fill="#f08faf"/><path d="M180 174 Q164 186 152 179 M180 174 Q196 186 208 179" fill="none"/></g></g></svg>